<svg version="1.1" id="Layer_1" xmlns="http://www.w3.org/2000/svg" xmlns:xlink="http://www.w3.org/1999/xlink" x="0px" y="0px"
	 width="100%" viewBox="0 0 260 194" enable-background="new 0 0 260 194" xml:space="preserve">
<path fill="#FEFEFE" opacity="1.000000" stroke="none" 
	d="
M183.000000,195.000000 
	C122.000000,195.000000 61.500008,195.000000 1.000008,195.000000 
	C1.000005,130.333344 1.000005,65.666679 1.000003,1.000017 
	C87.666656,1.000011 174.333313,1.000011 261.000000,1.000006 
	C261.000000,65.666649 261.000000,130.333298 261.000000,194.999969 
	C235.166672,195.000000 209.333328,195.000000 183.000000,195.000000 
M189.099365,125.431160 
	C188.915588,125.126129 188.731812,124.821091 188.375671,123.883118 
	C187.871460,122.919235 187.367249,121.955345 186.808746,120.369865 
	C186.257324,119.518974 185.705902,118.668083 185.191360,117.766983 
	C185.191360,117.766983 185.201996,117.705620 185.158554,117.088219 
	C184.762177,116.392876 184.365814,115.697533 183.963074,114.403152 
	C183.654068,113.920906 183.345078,113.438660 183.002975,112.967323 
	C183.002975,112.967323 183.023636,112.995346 182.833191,112.331955 
	C182.573776,111.254738 182.314346,110.177513 182.394012,108.764359 
	C182.394012,108.764359 182.524338,108.305191 182.958481,107.802971 
	C187.344070,99.880783 191.729675,91.958595 196.442612,83.445107 
	C188.271210,79.090691 180.456284,74.926239 172.246689,70.243546 
	C171.651001,70.019341 171.055328,69.795128 170.313217,68.973709 
	C170.261795,68.567726 170.210373,68.161736 170.407501,67.736443 
	C170.407501,67.736443 170.423248,67.369514 170.423248,67.369514 
	C170.423248,67.369514 170.146637,67.221733 170.159180,66.275421 
	C170.159180,63.992767 170.159180,61.710114 170.159180,59.307102 
	C165.790237,58.947319 161.744568,58.614159 157.820663,57.675766 
	C154.731354,50.228687 151.642044,42.781609 148.355438,34.858913 
	C143.035477,39.889301 138.240540,44.423244 132.749084,48.378281 
	C132.196167,48.154976 131.643250,47.931675 130.670273,47.194664 
	C127.794518,45.685448 124.918755,44.176235 121.648727,42.163097 
	C116.430809,39.405487 111.212883,36.647881 105.542343,33.427429 
	C105.062408,33.389206 104.436760,33.133888 104.123566,33.344097 
	C92.422455,41.197716 80.703773,49.027676 69.141235,57.081581 
	C67.898270,57.947372 66.795395,60.242638 66.969696,61.716007 
	C68.127579,71.503433 69.651344,81.247566 70.982582,91.709351 
	C71.305069,92.819016 71.627563,93.928688 71.828308,95.834480 
	C72.231186,97.890938 72.634071,99.947403 72.926460,102.829857 
	C73.364212,105.236908 73.801964,107.643959 74.132629,110.815857 
	C74.513168,112.856590 74.893707,114.897331 75.194748,117.634354 
	C75.509583,118.755455 75.824417,119.876556 76.023125,121.630112 
	C76.210999,122.433617 76.398872,123.237114 76.558350,124.916267 
	C77.163345,128.239899 77.768333,131.563522 78.239792,135.578827 
	C78.509674,136.718719 78.779556,137.858597 78.923767,139.838882 
	C79.918053,142.951981 80.912338,146.065094 82.190491,149.360611 
	C82.190491,149.360611 82.463806,149.162720 82.828568,149.631577 
	C83.203339,149.712463 83.578110,149.793335 84.459595,150.385986 
	C85.610207,150.721786 86.760811,151.057587 88.417862,151.846664 
	C90.431091,152.536621 92.444321,153.226578 94.420517,154.197739 
	C94.420517,154.197739 94.802330,154.343079 94.802330,154.343079 
	C94.802330,154.343079 95.100044,154.085922 95.028214,154.016907 
	C95.028214,154.016907 95.053688,154.113205 95.477509,154.451523 
	C95.831474,154.494415 96.185448,154.537323 96.960716,155.158981 
	C102.497849,157.250900 108.163063,159.065063 113.524742,161.537476 
	C116.813942,163.054230 118.995270,162.474487 121.470917,160.179840 
	C125.171997,156.749374 129.124283,153.589920 133.379120,150.738525 
	C134.134247,150.953094 134.889389,151.167664 136.122513,151.848129 
	C137.934647,152.698380 139.746765,153.548630 141.944077,154.918182 
	C142.920059,155.328461 143.896027,155.738739 145.127213,156.559128 
	C145.127213,156.559128 145.538239,156.812637 145.538239,156.812637 
	C145.538239,156.812637 146.020950,156.798355 146.405807,157.117722 
	C146.572342,157.125168 146.738876,157.132614 147.004456,157.098495 
	C147.004456,157.098495 146.897141,157.101730 147.203659,157.641388 
	C147.764160,157.907333 148.324677,158.173279 149.280350,158.914505 
	C154.782227,161.201096 159.885834,163.409363 165.860962,158.980576 
	C172.219727,154.267410 179.440491,150.717239 186.888763,146.503738 
	C187.360794,146.113373 187.832809,145.723007 189.009857,145.202118 
	C197.988937,140.037506 197.283417,142.281952 192.307404,132.796066 
	C192.103119,132.406662 191.557007,132.196548 191.365509,131.219894 
	C191.062927,130.355240 190.760361,129.490601 190.367111,128.056381 
	C190.076569,127.568123 189.786011,127.079865 189.416763,126.225548 
	C189.416763,126.225548 189.139908,125.971992 189.099365,125.431160 
z"/>
<path fill="#050405" opacity="1.000000" stroke="none" 
	d="
M170.158936,67.755753 
	C170.210373,68.161736 170.261795,68.567726 170.252274,69.663635 
	C170.227921,70.894371 170.264496,71.435173 170.270691,72.323997 
	C170.287521,73.133499 170.334747,73.594986 170.262512,74.362549 
	C170.219452,75.092308 170.295868,75.515984 170.294495,76.400711 
	C170.271408,80.911484 170.326111,84.961227 170.298309,89.272339 
	C170.273407,89.707214 170.331039,89.880722 170.302643,90.464485 
	C170.278702,92.269089 170.340775,93.663452 170.276764,95.492546 
	C170.210754,98.948685 170.270859,101.970078 170.288605,105.238586 
	C170.309875,105.640129 170.373505,105.794563 170.352173,106.320129 
	C170.324326,107.444801 170.381439,108.198334 170.317108,109.351700 
	C170.272522,110.852341 170.349365,111.953140 170.334015,113.459305 
	C170.310562,115.240799 170.379303,116.616936 170.335266,118.412796 
	C170.269531,120.566307 170.316605,122.300095 170.286896,124.271347 
	C170.254135,124.669800 170.298187,124.830780 170.258667,125.447754 
	C170.175095,129.491959 170.175095,133.080185 170.175095,137.123795 
	C162.284973,137.123795 155.339645,137.123795 147.891403,137.061676 
	C138.584503,137.090866 129.780518,137.182144 120.583664,137.226105 
	C119.137733,137.212357 118.084679,137.245941 116.577988,137.171814 
	C112.393379,137.135529 108.662399,137.206970 104.476166,137.225159 
	C100.029228,137.099884 96.037567,137.027847 92.045654,136.496368 
	C91.944336,132.050598 91.843262,128.064301 91.812531,123.688873 
	C91.823273,122.512802 91.763664,121.725838 91.798920,120.483231 
	C91.800392,112.351128 91.707016,104.674667 91.722389,96.565598 
	C91.764999,93.765686 91.698860,91.398384 91.740845,88.571106 
	C91.788193,78.775688 91.727417,69.440231 91.975815,59.780338 
	C97.015579,59.270302 101.746727,59.097519 106.476639,58.895760 
	C111.973778,58.661270 117.469818,58.401386 123.260635,58.118774 
	C123.751274,58.094158 123.947624,58.103298 124.469711,58.346069 
	C135.763260,58.480137 146.731079,58.380569 157.698898,58.280998 
	C161.744568,58.614159 165.790237,58.947319 170.159180,59.307102 
	C170.159180,61.710114 170.159180,63.992767 170.059097,66.882507 
	C169.959015,67.489601 170.158936,67.755753 170.158936,67.755753 
M131.979752,90.441536 
	C131.979752,92.879013 131.979752,95.316483 131.979752,97.856331 
	C136.787857,97.856331 141.094238,98.161957 145.341736,97.791855 
	C153.833130,97.051956 159.585388,90.550819 159.238831,82.560951 
	C158.892426,74.574348 153.177216,69.094421 144.578110,68.723320 
	C140.464066,68.545776 136.335999,68.692764 131.979599,68.692764 
	C131.979599,75.868622 131.979599,82.663155 131.979752,90.441536 
M111.173996,89.043015 
	C113.048660,90.641777 115.506317,91.901077 116.676193,93.910217 
	C119.085136,98.047333 122.104721,99.070717 126.749992,97.384766 
	C124.600075,94.078773 122.570045,90.957146 120.567093,87.877144 
	C125.983215,83.572105 127.638802,79.612175 125.849075,74.840340 
	C123.887627,69.610664 119.460831,68.606987 114.489128,68.688698 
	C110.385689,68.756142 106.280251,68.702484 102.029602,68.702484 
	C102.029602,78.698738 102.029602,88.227066 102.029602,97.880417 
	C104.094589,97.880417 105.848618,97.880417 108.104805,97.880417 
	C108.104805,95.589157 107.891655,93.444252 108.205841,91.379593 
	C108.338364,90.508781 109.582642,89.807159 111.173996,89.043015 
M126.206238,123.265121 
	C117.758133,123.265121 109.310028,123.265121 100.258553,123.265121 
	C100.428123,125.441177 100.556274,127.085686 100.673927,128.595520 
	C110.781105,128.595520 120.222336,128.595520 129.973511,128.595520 
	C129.600082,126.279449 131.796982,123.079964 126.206238,123.265121 
z"/>
<path fill="#DA1463" opacity="1.000000" stroke="none" 
	d="
M122.966339,58.152523 
	C117.469818,58.401386 111.973778,58.661270 106.476639,58.895760 
	C101.746727,59.097519 97.015579,59.270302 91.748535,60.108116 
	C91.134407,66.878830 90.992409,72.997437 91.003220,79.115776 
	C91.009682,82.771362 90.087204,85.499763 86.053185,86.550522 
	C81.009529,87.864265 76.051254,89.505775 71.056114,91.005783 
	C69.651344,81.247566 68.127579,71.503433 66.969696,61.716007 
	C66.795395,60.242638 67.898270,57.947372 69.141235,57.081581 
	C80.703773,49.027676 92.422455,41.197716 104.123566,33.344097 
	C104.436760,33.133888 105.062408,33.389206 105.802528,34.016602 
	C108.402527,38.059345 110.742340,41.512924 113.093117,45.286125 
	C113.702919,46.118771 114.301750,46.631790 114.955551,47.423637 
	C115.362549,48.122326 115.714577,48.542183 116.075073,49.311363 
	C118.377808,52.491299 120.672073,55.321911 122.966339,58.152523 
z"/>
<path fill="#DA1667" opacity="1.000000" stroke="none" 
	d="
M170.381973,74.056465 
	C170.334747,73.594986 170.287521,73.133499 170.554230,72.156952 
	C171.459244,71.348511 172.050293,71.055145 172.641357,70.761780 
	C180.456284,74.926239 188.271210,79.090691 196.442612,83.445107 
	C191.729675,91.958595 187.344070,99.880783 182.338043,107.944397 
	C181.170090,107.988373 180.622543,107.890930 180.077423,107.598389 
	C180.079834,107.403290 180.024048,107.017082 179.998718,106.678642 
	C179.328140,105.198730 178.682892,104.057251 177.980881,102.547546 
	C177.593018,100.481781 177.261932,98.784233 176.947327,96.707832 
	C175.026520,94.215897 173.089249,92.102814 171.059082,89.798027 
	C170.841583,89.338478 170.646469,89.140030 170.380829,89.010963 
	C170.326111,84.961227 170.271408,80.911484 170.462784,76.251846 
	C170.599899,75.113449 170.490936,74.584961 170.381973,74.056465 
z"/>
<path fill="#147AEA" opacity="1.000000" stroke="none" 
	d="
M157.759781,57.978382 
	C146.731079,58.380569 135.763260,58.480137 124.545372,58.115643 
	C124.469086,57.365963 124.707870,57.153324 125.352005,57.038544 
	C126.856987,55.766247 128.021622,54.469082 129.095062,53.093395 
	C129.003860,53.014874 129.172882,53.186466 129.487335,53.121185 
	C131.016403,51.689663 132.231003,50.323429 133.445602,48.957191 
	C138.240540,44.423244 143.035477,39.889301 148.355438,34.858913 
	C151.642044,42.781609 154.731354,50.228687 157.759781,57.978382 
z"/>
<path fill="#F9B512" opacity="1.000000" stroke="none" 
	d="
M132.969696,150.315186 
	C129.124283,153.589920 125.171997,156.749374 121.470917,160.179840 
	C118.995270,162.474487 116.813942,163.054230 113.524742,161.537476 
	C108.163063,159.065063 102.497849,157.250900 96.868179,154.719162 
	C96.775642,154.279343 97.015419,153.984543 97.393044,153.984802 
	C105.012474,151.993896 112.283081,150.099045 119.477158,147.948212 
	C121.436371,147.362488 123.165123,146.005890 125.399750,145.002090 
	C126.866837,145.000534 127.933807,144.999969 129.320938,144.958557 
	C130.092712,144.280945 130.544327,143.644135 131.241882,142.840591 
	C131.657410,142.118698 131.826996,141.563538 132.249573,141.008209 
	C132.671234,141.009323 132.839905,141.010590 133.115662,141.229034 
	C133.421509,141.716690 133.681000,141.902206 134.137268,142.288849 
	C134.645386,143.493866 135.017456,144.412781 135.389526,145.331696 
	C135.858856,144.967422 136.328186,144.603134 136.797516,144.238861 
	C136.865829,143.164261 136.934128,142.089661 137.001938,141.007767 
	C137.001434,141.000473 137.016281,141.002258 137.418274,141.002090 
	C139.255432,141.415375 140.690567,141.828827 141.985809,142.548767 
	C138.887161,145.341888 135.928421,147.828537 132.969696,150.315186 
z"/>
<path fill="#0D7CF5" opacity="1.000000" stroke="none" 
	d="
M186.284882,146.659271 
	C179.440491,150.717239 172.219727,154.267410 165.860962,158.980576 
	C159.885834,163.409363 154.782227,161.201096 148.988388,158.350128 
	C148.096664,157.557724 147.496902,157.329727 146.897141,157.101730 
	C146.897141,157.101730 147.004456,157.098495 146.930084,156.933441 
	C146.577454,156.778366 146.299194,156.788361 146.020950,156.798355 
	C146.020950,156.798355 145.538239,156.812637 145.538239,156.812637 
	C145.538239,156.812637 145.127213,156.559128 145.028992,156.084473 
	C144.933792,155.428894 144.936783,155.247955 145.154816,154.795959 
	C150.074295,154.426895 154.182938,153.072769 157.403198,149.004089 
	C160.198334,148.331482 162.595215,147.660904 165.369995,146.994217 
	C169.506790,148.085739 173.377151,149.743637 176.345322,145.148529 
	C181.904068,146.471725 182.255371,146.202209 181.000000,141.748749 
	C180.999878,141.331039 180.999741,141.163956 181.332153,140.996704 
	C182.108109,140.995880 182.551514,140.995193 183.328766,140.996887 
	C184.107605,141.000534 184.552582,141.001785 185.123718,141.294724 
	C185.828690,142.712814 186.407486,143.839249 186.746857,145.185776 
	C186.433243,145.823669 186.359055,146.241470 186.284882,146.659271 
z"/>
<path fill="#F59B20" opacity="1.000000" stroke="none" 
	d="
M133.008560,141.011841 
	C132.839905,141.010590 132.671234,141.009323 131.781311,141.004150 
	C123.524963,141.000229 115.989532,140.968979 108.455185,141.044983 
	C107.635826,141.053238 106.822716,141.680786 105.966927,142.374619 
	C104.314491,143.544724 102.781357,144.698685 101.071228,145.101761 
	C98.247299,145.767349 95.309097,145.948196 92.037514,146.384186 
	C94.183121,147.950958 95.589081,148.977615 96.663727,150.004639 
	C95.890762,150.007889 95.449104,150.010757 94.633018,150.002594 
	C92.055046,149.313049 89.851509,148.634521 87.226669,147.826263 
	C87.501770,149.259415 87.706596,150.326401 87.911415,151.393402 
	C86.760811,151.057587 85.610207,150.721786 84.021202,149.908020 
	C83.209808,149.340942 82.836807,149.251831 82.463806,149.162720 
	C82.463806,149.162720 82.190491,149.360611 82.181259,148.963089 
	C83.343567,146.376740 84.515114,144.187912 86.191505,141.055878 
	C87.111229,143.368484 87.546425,144.462753 88.316750,146.399704 
	C88.895546,144.037445 89.230209,142.671555 89.650421,140.956543 
	C92.024460,141.691971 94.110397,142.338165 96.196342,142.984360 
	C96.329140,142.692688 96.461937,142.401016 96.594734,142.109344 
	C95.859634,141.336792 95.124535,140.564255 94.592285,140.004883 
	C98.194649,139.362366 101.590446,138.756699 105.441574,138.105850 
	C109.608467,137.800293 113.320045,137.539917 117.031616,137.279541 
	C118.084679,137.245941 119.137733,137.212357 120.901566,137.463058 
	C124.084709,137.870941 126.557083,137.994537 129.110977,138.484329 
	C131.800430,139.567780 134.408356,140.285019 137.016281,141.002258 
	C137.016281,141.002258 137.001434,141.000473 136.625580,141.004242 
	C135.497101,141.010483 134.744492,141.012955 133.746063,141.011597 
	C133.500229,141.007782 133.008560,141.011841 133.008560,141.011841 
z"/>
<path fill="#DB3C4F" opacity="1.000000" stroke="none" 
	d="
M91.613632,96.998207 
	C91.707016,104.674667 91.800392,112.351128 91.621140,120.491455 
	C91.348495,120.955315 90.992851,120.940483 90.998001,120.570587 
	C90.983795,119.456985 90.964447,118.713287 90.963493,117.533783 
	C90.964325,115.057465 90.946762,113.016945 90.948059,110.553947 
	C90.887505,103.832550 90.817696,104.167244 85.087128,104.669899 
	C80.646355,105.059418 76.460922,104.850082 75.181381,110.330597 
	C74.867493,110.237396 74.553596,110.144203 74.239708,110.051010 
	C73.801964,107.643959 73.364212,105.236908 73.362183,102.408707 
	C79.736473,100.324448 85.675056,98.661331 91.613632,96.998207 
z"/>
<path fill="#4766B8" opacity="1.000000" stroke="none" 
	d="
M133.174408,150.526855 
	C135.928421,147.828537 138.887161,145.341888 142.307068,142.410278 
	C144.174026,140.914139 145.579788,139.862946 147.284576,138.764893 
	C147.853836,138.186600 148.124084,137.655197 148.394318,137.123795 
	C155.339645,137.123795 162.284973,137.123795 170.175095,137.123795 
	C170.175095,133.080185 170.175095,129.491959 170.425964,125.474747 
	C170.676849,125.045746 171.013428,125.090775 171.010422,125.450119 
	C171.339218,126.876869 171.671021,127.944260 172.001038,129.439133 
	C172.000336,131.581589 172.001419,133.296555 171.998581,135.375763 
	C171.977524,136.468277 171.960388,137.196564 171.654739,137.959991 
	C170.908722,138.310883 170.451218,138.626602 169.544434,138.952209 
	C166.398621,138.977081 163.702057,138.992065 160.579926,138.997269 
	C156.688583,138.802811 153.182770,138.535995 151.714600,143.080353 
	C150.971436,143.443802 150.484177,143.702530 149.594177,143.961273 
	C147.559738,144.934250 144.421021,141.954422 143.584412,145.969986 
	C140.834320,147.640686 138.445770,149.302536 135.951874,151.066696 
	C135.846512,151.168991 135.644516,151.382233 135.644516,151.382233 
	C134.889389,151.167664 134.134247,150.953094 133.174408,150.526855 
z"/>
<path fill="#F38F2C" opacity="1.000000" stroke="none" 
	d="
M104.986244,138.151031 
	C101.590446,138.756699 98.194649,139.362366 94.592285,140.004883 
	C95.124535,140.564255 95.859634,141.336792 96.594734,142.109344 
	C96.461937,142.401016 96.329140,142.692688 96.196342,142.984360 
	C94.110397,142.338165 92.024460,141.691971 89.650421,140.956543 
	C89.230209,142.671555 88.895546,144.037445 88.316750,146.399704 
	C87.546425,144.462753 87.111229,143.368484 86.191505,141.055878 
	C84.515114,144.187912 83.343567,146.376740 82.039322,148.871887 
	C80.912338,146.065094 79.918053,142.951981 79.230141,139.213913 
	C79.831200,137.675598 80.125877,136.762238 80.049301,136.999588 
	C83.699356,136.999588 86.852142,136.999588 90.345520,137.017029 
	C91.139381,137.008255 91.592644,136.982025 92.045898,136.955811 
	C96.037567,137.027847 100.029228,137.099884 104.476669,137.444138 
	C104.932434,137.716354 104.986244,138.151016 104.986244,138.151031 
z"/>
<path fill="#DB2D56" opacity="1.000000" stroke="none" 
	d="
M91.722382,96.565598 
	C85.675056,98.661331 79.736473,100.324448 73.417427,101.995712 
	C72.634071,99.947403 72.231186,97.890938 72.246765,95.277222 
	C78.987724,92.823669 85.310226,90.927376 91.632721,89.031082 
	C91.698860,91.398384 91.764999,93.765686 91.722382,96.565598 
z"/>
<path fill="#CF1F5A" opacity="1.000000" stroke="none" 
	d="
M91.740845,88.571106 
	C85.310226,90.927376 78.987724,92.823669 72.307640,94.879158 
	C71.627563,93.928688 71.305069,92.819016 71.019348,91.357567 
	C76.051254,89.505775 81.009529,87.864265 86.053185,86.550522 
	C90.087204,85.499763 91.009682,82.771362 91.003220,79.115776 
	C90.992409,72.997437 91.134407,66.878830 91.439377,60.432556 
	C91.727417,69.440231 91.788193,78.775688 91.740845,88.571106 
z"/>
<path fill="#ED6C39" opacity="1.000000" stroke="none" 
	d="
M125.011658,57.013672 
	C124.707870,57.153324 124.469086,57.365963 124.219635,57.882011 
	C123.947624,58.103298 123.751274,58.094158 123.260635,58.118774 
	C120.672073,55.321911 118.377808,52.491299 116.422691,49.277336 
	C118.522224,46.818333 120.282608,44.742676 122.042999,42.667023 
	C124.918755,44.176235 127.794518,45.685448 130.846680,47.774475 
	C131.014389,48.570316 131.005661,48.786343 130.998474,49.001183 
	C131.000000,49.000000 131.002609,48.996662 130.671021,49.015640 
	C129.950577,50.418568 129.561737,51.802517 129.172882,53.186466 
	C129.172882,53.186466 129.003860,53.014874 128.731750,53.034485 
	C127.970139,53.039280 127.480652,53.024464 126.953705,52.729301 
	C126.620453,52.127232 126.324669,51.805508 126.028893,51.483780 
	C125.850746,51.688911 125.672600,51.894047 125.494453,52.099182 
	C125.999527,52.396503 126.504608,52.693825 126.871780,53.289608 
	C126.159813,54.729939 125.585739,55.871807 125.011658,57.013672 
z"/>
<path fill="#E6494A" opacity="1.000000" stroke="none" 
	d="
M74.186172,110.433434 
	C74.553596,110.144203 74.867493,110.237396 75.181381,110.330597 
	C76.460922,104.850082 80.646355,105.059418 85.087128,104.669899 
	C90.817696,104.167244 90.887505,103.832550 90.643738,110.421509 
	C86.512917,109.684685 83.180573,114.694763 79.127861,111.663155 
	C79.046303,111.602150 77.804192,112.928619 77.245895,113.709564 
	C76.514465,114.732666 75.924850,115.857170 75.274246,116.938065 
	C74.893707,114.897331 74.513168,112.856590 74.186172,110.433434 
z"/>
<path fill="#F38F34" opacity="1.000000" stroke="none" 
	d="
M121.845863,42.415062 
	C120.282608,44.742676 118.522224,46.818333 116.414215,48.928017 
	C115.714577,48.542183 115.362549,48.122326 114.960213,47.090530 
	C114.300652,45.974564 113.691406,45.470531 113.082153,44.966499 
	C110.742340,41.512924 108.402527,38.059345 106.028839,34.248024 
	C111.212883,36.647881 116.430809,39.405487 121.845863,42.415062 
z"/>
<path fill="#E06D37" opacity="1.000000" stroke="none" 
	d="
M90.992851,120.940491 
	C90.992851,120.940483 91.348495,120.955315 91.526276,120.947098 
	C91.763664,121.725838 91.823273,122.512802 91.591553,123.943863 
	C90.882530,126.061401 90.464836,127.534843 89.598602,129.001709 
	C84.508881,129.040588 79.107635,127.695877 78.373322,134.887161 
	C77.768333,131.563522 77.163345,128.239899 76.962288,124.578506 
	C81.908432,123.140656 86.450645,122.040573 90.992851,120.940491 
z"/>
<path fill="#F17C2D" opacity="1.000000" stroke="none" 
	d="
M78.306557,135.233002 
	C79.107635,127.695877 84.508881,129.040588 89.575302,129.444580 
	C90.002007,132.262558 90.003464,134.631073 90.004921,136.999588 
	C86.852142,136.999588 83.699356,136.999588 80.049301,136.999588 
	C80.125877,136.762238 79.831200,137.675598 79.292976,138.793716 
	C78.779556,137.858597 78.509674,136.718719 78.306557,135.233002 
z"/>
<path fill="#E95644" opacity="1.000000" stroke="none" 
	d="
M75.234497,117.286209 
	C75.924850,115.857170 76.514465,114.732666 77.245895,113.709564 
	C77.804192,112.928619 79.046303,111.602150 79.127861,111.663155 
	C83.180573,114.694763 86.512917,109.684685 90.624886,110.843994 
	C90.946762,113.016945 90.964325,115.057465 90.595032,117.374130 
	C84.868690,116.034775 80.070251,116.693321 76.139244,120.997658 
	C75.824417,119.876556 75.509583,118.755455 75.234497,117.286209 
z"/>
<path fill="#EB623C" opacity="1.000000" stroke="none" 
	d="
M76.081184,121.313889 
	C80.070251,116.693321 84.868690,116.034775 90.576645,117.809937 
	C90.964447,118.713287 90.983795,119.456985 90.998001,120.570587 
	C86.450645,122.040573 81.908432,123.140656 76.976486,124.140678 
	C76.398872,123.237114 76.210999,122.433617 76.081184,121.313889 
z"/>
<path fill="#624EB1" opacity="1.000000" stroke="none" 
	d="
M170.363678,124.033890 
	C170.316605,122.300095 170.269531,120.566307 170.709595,118.413635 
	C175.129181,117.624695 179.008163,117.149796 181.343414,112.992401 
	C182.127487,112.994949 182.575562,112.995148 183.023636,112.995346 
	C183.023636,112.995346 183.002975,112.967323 183.021484,113.263618 
	C183.349808,114.040672 183.659622,114.521431 183.969437,115.002190 
	C184.365814,115.697533 184.762177,116.392876 184.898376,117.623978 
	C180.113144,120.116898 175.588074,122.074043 170.888123,124.019424 
	C170.713257,124.007652 170.363678,124.033890 170.363678,124.033890 
z"/>
<path fill="#5658C1" opacity="1.000000" stroke="none" 
	d="
M171.063004,124.031189 
	C175.588074,122.074043 180.113144,120.116898 184.920105,117.932678 
	C185.201996,117.705620 185.191360,117.766983 185.128448,118.151886 
	C185.664703,119.355019 186.263870,120.173241 186.863037,120.991463 
	C187.367249,121.955345 187.871460,122.919235 188.314758,124.319595 
	C188.253830,124.756065 187.980362,125.014313 187.678375,124.859039 
	C184.237274,123.015495 174.755692,125.674828 172.014099,129.007751 
	C172.008270,129.004623 172.002823,129.011658 172.002823,129.011658 
	C171.671021,127.944260 171.339218,126.876869 171.015381,125.184341 
	C171.036560,124.383202 171.049774,124.207191 171.063004,124.031189 
z"/>
<path fill="#1E7BE4" opacity="1.000000" stroke="none" 
	d="
M191.170166,131.902908 
	C191.557007,132.196548 192.103119,132.406662 192.307404,132.796066 
	C197.283417,142.281952 197.988937,140.037506 188.564148,145.162704 
	C188.118439,145.123291 187.935135,144.911713 188.114868,144.626129 
	C190.235794,142.769653 192.176971,141.198776 194.934158,138.967575 
	C189.627670,140.489273 188.903580,140.328964 188.142548,137.675491 
	C188.514465,136.220688 188.745163,135.089172 189.004364,133.655624 
	C189.371536,132.876938 189.710190,132.400284 190.329346,131.927704 
	C190.796616,131.922180 190.983383,131.912552 191.170166,131.902908 
z"/>
<path fill="#763C8C" opacity="1.000000" stroke="none" 
	d="
M182.928406,112.663651 
	C182.575562,112.995148 182.127487,112.994949 181.143692,112.742722 
	C177.214050,112.678444 173.820145,112.866196 170.426208,113.053940 
	C170.349365,111.953140 170.272522,110.852341 170.632935,109.415939 
	C174.054794,108.392593 177.039429,107.704842 180.024048,107.017082 
	C180.024048,107.017082 180.079834,107.403290 180.193268,107.901985 
	C180.889450,108.633888 181.472183,108.867088 182.054932,109.100296 
	C182.314346,110.177513 182.573776,111.254738 182.928406,112.663651 
z"/>
<path fill="#F9AA17" opacity="1.000000" stroke="none" 
	d="
M88.164642,151.620026 
	C87.706596,150.326401 87.501770,149.259415 87.226669,147.826263 
	C89.851509,148.634521 92.055046,149.313049 94.630539,150.411316 
	C95.019562,151.925110 95.036629,153.019150 95.053688,154.113205 
	C95.053688,154.113205 95.028214,154.016907 94.901794,154.014267 
	C94.775375,154.011627 94.457550,153.916534 94.457550,153.916534 
	C92.444321,153.226578 90.431091,152.536621 88.164642,151.620026 
z"/>
<path fill="#CD625E" opacity="1.000000" stroke="none" 
	d="
M130.996948,49.002369 
	C131.005661,48.786343 131.014389,48.570316 131.056717,48.031334 
	C131.643250,47.931675 132.196167,48.154976 133.097351,48.667736 
	C132.231003,50.323429 131.016403,51.689663 129.487335,53.121185 
	C129.561737,51.802517 129.950577,50.418568 130.716904,49.158348 
	C131.181351,49.332649 131.268295,49.383217 131.355255,49.433788 
	C131.235825,49.289982 131.116379,49.146175 130.996948,49.002369 
z"/>
<path fill="#F9B512" opacity="1.000000" stroke="none" 
	d="
M95.265594,154.282364 
	C95.036629,153.019150 95.019562,151.925110 95.004974,150.422333 
	C95.449104,150.010757 95.890762,150.007889 96.664864,150.402771 
	C97.003349,151.861877 97.009384,152.923203 97.015427,153.984543 
	C97.015419,153.984543 96.775642,154.279343 96.657532,154.429779 
	C96.185448,154.537323 95.831474,154.494415 95.265594,154.282364 
z"/>
<path fill="#4766B8" opacity="1.000000" stroke="none" 
	d="
M141.558899,154.398880 
	C139.746765,153.548630 137.934647,152.698380 135.883514,151.615173 
	C135.644516,151.382233 135.846512,151.168991 136.295502,151.117371 
	C138.458328,151.740509 140.172195,152.415283 141.905457,153.319916 
	C141.924835,153.549744 141.994354,154.005798 141.884094,154.102524 
	C141.773834,154.199249 141.558899,154.398880 141.558899,154.398880 
z"/>
<path fill="#624EB1" opacity="1.000000" stroke="none" 
	d="
M186.835892,120.680664 
	C186.263870,120.173241 185.664703,119.355019 185.110016,118.177002 
	C185.705902,118.668083 186.257324,119.518974 186.835892,120.680664 
z"/>
<path fill="#4766B8" opacity="1.000000" stroke="none" 
	d="
M144.939774,155.067017 
	C144.936783,155.247955 144.933792,155.428894 144.901398,155.879425 
	C143.896027,155.738739 142.920059,155.328461 141.751495,154.658539 
	C141.558899,154.398880 141.773834,154.199249 142.197327,154.145645 
	C143.393799,154.417038 144.166779,154.742035 144.939774,155.067017 
z"/>
<path fill="#A02669" opacity="1.000000" stroke="none" 
	d="
M172.444031,70.502663 
	C172.050293,71.055145 171.459244,71.348511 170.584625,71.808929 
	C170.264496,71.435173 170.227921,70.894371 170.325485,69.962242 
	C171.055328,69.795128 171.651001,70.019341 172.444031,70.502663 
z"/>
<path fill="#485FCC" opacity="1.000000" stroke="none" 
	d="
M191.267838,131.561401 
	C190.983383,131.912552 190.796616,131.922180 190.315826,131.566162 
	C190.005127,130.473404 189.988449,129.746292 190.092896,128.920410 
	C190.214035,128.821655 190.457794,128.625946 190.457794,128.625946 
	C190.760361,129.490601 191.062927,130.355240 191.267838,131.561401 
z"/>
<path fill="#1676F0" opacity="1.000000" stroke="none" 
	d="
M147.050400,157.371552 
	C147.496902,157.329727 148.096664,157.557724 148.790802,158.112473 
	C148.324677,158.173279 147.764160,157.907333 147.050400,157.371552 
z"/>
<path fill="#1E7BE4" opacity="1.000000" stroke="none" 
	d="
M186.586823,146.581512 
	C186.359055,146.241470 186.433243,145.823669 186.984680,145.181381 
	C187.461929,144.956894 187.935135,144.911713 187.935135,144.911713 
	C187.935135,144.911713 188.118439,145.123291 188.211639,145.227966 
	C187.832809,145.723007 187.360794,146.113373 186.586823,146.581512 
z"/>
<path fill="#485FCC" opacity="1.000000" stroke="none" 
	d="
M189.495468,126.591606 
	C189.786011,127.079865 190.076569,127.568123 190.412445,128.341156 
	C190.457794,128.625946 190.214035,128.821655 189.855255,128.748596 
	C189.315247,128.129166 189.134018,127.582787 189.088440,126.925171 
	C189.224091,126.813942 189.495468,126.591606 189.495468,126.591606 
z"/>
<path fill="#7947AA" opacity="1.000000" stroke="none" 
	d="
M183.966248,114.702667 
	C183.659622,114.521431 183.349808,114.040672 183.038025,113.258163 
	C183.345078,113.438660 183.654068,113.920906 183.966248,114.702667 
z"/>
<path fill="#9B3694" opacity="1.000000" stroke="none" 
	d="
M182.224472,108.932327 
	C181.472183,108.867088 180.889450,108.633888 180.190857,108.097076 
	C180.622543,107.890930 181.170090,107.988373 182.120972,108.195511 
	C182.524338,108.305191 182.394012,108.764359 182.224472,108.932327 
z"/>
<path fill="#485FCC" opacity="1.000000" stroke="none" 
	d="
M189.139908,125.971992 
	C189.139908,125.971992 189.416763,126.225548 189.456116,126.408577 
	C189.495468,126.591606 189.224091,126.813942 188.879852,126.807243 
	C188.273956,126.600449 188.086258,126.345833 187.982101,126.024216 
	C187.991699,126.011726 188.012650,125.987343 188.294525,125.987427 
	C188.764221,125.982338 188.952057,125.977165 189.139908,125.971992 
z"/>
<path fill="#5658C1" opacity="1.000000" stroke="none" 
	d="
M189.119629,125.701576 
	C188.952057,125.977165 188.764221,125.982338 188.286713,125.744232 
	C187.997025,125.500954 187.980362,125.014313 187.980362,125.014313 
	C187.980362,125.014313 188.253830,124.756065 188.400940,124.636063 
	C188.731812,124.821091 188.915588,125.126129 189.119629,125.701576 
z"/>
<path fill="#F38F2C" opacity="1.000000" stroke="none" 
	d="
M82.646187,149.397156 
	C82.836807,149.251831 83.209808,149.340942 83.767845,149.652130 
	C83.578110,149.793335 83.203339,149.712463 82.646187,149.397156 
z"/>
<path fill="#F9B512" opacity="1.000000" stroke="none" 
	d="
M94.439034,154.057129 
	C94.457550,153.916534 94.775375,154.011627 94.937714,154.048767 
	C95.100044,154.085922 94.802330,154.343079 94.802330,154.343079 
	C94.802330,154.343079 94.420517,154.197739 94.439034,154.057129 
z"/>
<path fill="#A02669" opacity="1.000000" stroke="none" 
	d="
M170.283218,67.746094 
	C170.158936,67.755753 169.959015,67.489601 170.052826,67.355667 
	C170.146637,67.221733 170.423248,67.369514 170.423248,67.369514 
	C170.423248,67.369514 170.407501,67.736443 170.283218,67.746094 
z"/>
<path fill="#1676F0" opacity="1.000000" stroke="none" 
	d="
M146.213379,156.958038 
	C146.299194,156.788361 146.577454,156.778366 146.880554,156.954224 
	C146.738876,157.132614 146.572342,157.125168 146.213379,156.958038 
z"/>
<path fill="#F1F1F1" opacity="1.000000" stroke="none" 
	d="
M131.979675,89.949615 
	C131.979599,82.663155 131.979599,75.868622 131.979599,68.692764 
	C136.335999,68.692764 140.464066,68.545776 144.578110,68.723320 
	C153.177216,69.094421 158.892426,74.574348 159.238831,82.560951 
	C159.585388,90.550819 153.833130,97.051956 145.341736,97.791855 
	C141.094238,98.161957 136.787857,97.856331 131.979752,97.856331 
	C131.979752,95.316483 131.979752,92.879013 131.979675,89.949615 
M151.467270,79.510033 
	C148.722137,74.049767 143.819397,74.776260 138.926849,74.857033 
	C138.926849,80.723557 138.926849,86.268974 138.926849,91.790138 
	C149.947723,92.432663 153.016769,89.615898 151.467270,79.510033 
z"/>
<path fill="#F6F6F6" opacity="1.000000" stroke="none" 
	d="
M110.747780,89.035828 
	C109.582642,89.807159 108.338364,90.508781 108.205841,91.379593 
	C107.891655,93.444252 108.104805,95.589157 108.104805,97.880417 
	C105.848618,97.880417 104.094589,97.880417 102.029602,97.880417 
	C102.029602,88.227066 102.029602,78.698738 102.029602,68.702484 
	C106.280251,68.702484 110.385689,68.756142 114.489128,68.688698 
	C119.460831,68.606987 123.887627,69.610664 125.849075,74.840340 
	C127.638802,79.612175 125.983215,83.572105 120.567093,87.877144 
	C122.570045,90.957146 124.600075,94.078773 126.749992,97.384766 
	C122.104721,99.070717 119.085136,98.047333 116.676193,93.910217 
	C115.506317,91.901077 113.048660,90.641777 110.747780,89.035828 
M118.714821,75.648468 
	C115.428482,75.103836 112.142143,74.559204 108.496315,73.954994 
	C108.379845,76.186417 108.250832,77.466316 108.263916,78.744766 
	C108.276825,80.006645 108.433456,81.267036 108.522018,82.460434 
	C118.287117,83.649429 120.278671,82.449821 118.714821,75.648468 
z"/>
<path fill="#DADADA" opacity="1.000000" stroke="none" 
	d="
M126.673187,123.265289 
	C131.796982,123.079964 129.600082,126.279449 129.973511,128.595520 
	C120.222336,128.595520 110.781105,128.595520 100.673927,128.595520 
	C100.556274,127.085686 100.428123,125.441177 100.258553,123.265121 
	C109.310028,123.265121 117.758133,123.265121 126.673187,123.265289 
z"/>
<path fill="#A02669" opacity="1.000000" stroke="none" 
	d="
M176.930832,97.086685 
	C177.261932,98.784233 177.593018,100.481781 177.612579,102.533981 
	C174.124771,100.453819 173.175964,104.409996 170.889175,105.035355 
	C170.703903,105.011871 170.330963,104.991478 170.330963,104.991478 
	C170.270859,101.970078 170.210754,98.948685 170.510468,95.748123 
	C172.890472,96.074875 174.910645,96.580780 176.930832,97.086685 
z"/>
<path fill="#7947AA" opacity="1.000000" stroke="none" 
	d="
M170.334015,113.459305 
	C173.820145,112.866196 177.214050,112.678444 180.807678,112.740372 
	C179.008163,117.149796 175.129181,117.624695 170.822388,117.993919 
	C170.379303,116.616936 170.310562,115.240799 170.334015,113.459305 
z"/>
<path fill="#9B3694" opacity="1.000000" stroke="none" 
	d="
M171.074448,105.058830 
	C173.175964,104.409996 174.124771,100.453819 177.669342,102.902206 
	C178.682892,104.057251 179.328140,105.198730 179.998718,106.678642 
	C177.039429,107.704842 174.054794,108.392593 170.754364,109.016098 
	C170.381439,108.198334 170.324326,107.444801 170.496613,106.203606 
	C170.880066,105.516998 170.996216,105.297966 171.074448,105.058830 
z"/>
<path fill="#C91C6F" opacity="1.000000" stroke="none" 
	d="
M176.947327,96.707832 
	C174.910645,96.580780 172.890472,96.074875 170.636566,95.313385 
	C170.340775,93.663452 170.278702,92.269089 170.494232,90.459785 
	C170.771851,90.044838 171.151978,89.989731 171.151978,89.989731 
	C173.089249,92.102814 175.026520,94.215897 176.947327,96.707832 
z"/>
<path fill="#B97730" opacity="1.000000" stroke="none" 
	d="
M147.891403,137.061676 
	C148.124084,137.655197 147.853836,138.186600 146.955353,138.518738 
	C140.561234,138.252365 134.795349,138.185257 129.029449,138.118134 
	C126.557083,137.994537 124.084709,137.870941 121.294441,137.510391 
	C129.780518,137.182144 138.584503,137.090866 147.891403,137.061676 
z"/>
<path fill="#B97730" opacity="1.000000" stroke="none" 
	d="
M90.345520,137.017029 
	C90.003464,134.631073 90.002007,132.262558 90.023834,129.451172 
	C90.464836,127.534843 90.882530,126.061401 91.521210,124.332977 
	C91.843262,128.064301 91.944336,132.050598 92.045654,136.496353 
	C91.592644,136.982025 91.139381,137.008255 90.345520,137.017029 
z"/>
<path fill="#B97730" opacity="1.000000" stroke="none" 
	d="
M105.441574,138.105835 
	C104.986244,138.151016 104.932434,137.716354 104.931931,137.497375 
	C108.662399,137.206970 112.393379,137.135529 116.577988,137.171814 
	C113.320045,137.539917 109.608467,137.800293 105.441574,138.105835 
z"/>
<path fill="#A02669" opacity="1.000000" stroke="none" 
	d="
M170.262512,74.362549 
	C170.490936,74.584961 170.599899,75.113449 170.540573,75.790802 
	C170.295868,75.515984 170.219452,75.092308 170.262512,74.362549 
z"/>
<path fill="#763C8C" opacity="1.000000" stroke="none" 
	d="
M170.888123,124.019424 
	C171.049774,124.207191 171.036560,124.383202 171.018372,124.824989 
	C171.013428,125.090775 170.676849,125.045746 170.509552,125.018753 
	C170.298187,124.830780 170.254135,124.669800 170.286896,124.271347 
	C170.363678,124.033890 170.713257,124.007652 170.888123,124.019424 
z"/>
<path fill="#763C8C" opacity="1.000000" stroke="none" 
	d="
M170.889175,105.035355 
	C170.996216,105.297966 170.880066,105.516998 170.581573,105.832458 
	C170.373505,105.794563 170.309875,105.640129 170.288605,105.238586 
	C170.330963,104.991478 170.703903,105.011871 170.889175,105.035355 
z"/>
<path fill="#A02669" opacity="1.000000" stroke="none" 
	d="
M171.059082,89.798019 
	C171.151978,89.989731 170.771851,90.044838 170.580261,90.049538 
	C170.331039,89.880722 170.273407,89.707214 170.298309,89.272339 
	C170.646469,89.140030 170.841583,89.338478 171.059082,89.798019 
z"/>
<path fill="#ED6C39" opacity="1.000000" stroke="none" 
	d="
M113.093117,45.286125 
	C113.691406,45.470531 114.300652,45.974564 114.905243,46.811703 
	C114.301750,46.631790 113.702919,46.118771 113.093117,45.286125 
z"/>
<path fill="#CD625E" opacity="1.000000" stroke="none" 
	d="
M126.991165,53.009647 
	C127.480652,53.024464 127.970139,53.039280 128.822937,53.113007 
	C128.021622,54.469082 126.856987,55.766247 125.352005,57.038544 
	C125.585739,55.871807 126.159813,54.729939 126.866943,53.294037 
	C127.000000,53.000000 126.991165,53.009647 126.991165,53.009647 
z"/>
<path fill="#F9AA17" opacity="1.000000" stroke="none" 
	d="
M97.393051,153.984802 
	C97.009384,152.923203 97.003349,151.861877 96.996185,150.402405 
	C95.589081,148.977615 94.183121,147.950958 92.037514,146.384186 
	C95.309097,145.948196 98.247299,145.767349 101.071228,145.101761 
	C102.781357,144.698685 104.314491,143.544724 106.350510,142.374405 
	C108.515656,142.347443 110.257439,142.674210 112.216888,142.894318 
	C112.707390,142.592087 112.894249,142.334229 113.425262,142.010529 
	C117.570137,143.005661 121.284889,144.004364 124.999634,145.003082 
	C123.165123,146.005890 121.436371,147.362488 119.477158,147.948212 
	C112.283081,150.099045 105.012474,151.993896 97.393051,153.984802 
z"/>
<path fill="#F9A60B" opacity="1.000000" stroke="none" 
	d="
M111.999222,143.000992 
	C110.257439,142.674210 108.515656,142.347443 106.390289,142.020889 
	C106.822716,141.680786 107.635826,141.053238 108.455185,141.044983 
	C115.989532,140.968979 123.524963,141.000229 131.528320,141.004303 
	C131.826996,141.563538 131.657410,142.118698 130.940491,142.838623 
	C129.929031,143.668732 129.464905,144.334061 129.000778,144.999390 
	C127.933807,144.999969 126.866837,145.000534 125.399750,145.002075 
	C121.284889,144.004364 117.570137,143.005661 113.206741,142.115509 
	C112.284988,142.420563 112.098694,142.679550 111.999222,143.000992 
z"/>
<path fill="#F6AC14" opacity="1.000000" stroke="none" 
	d="
M129.110977,138.484329 
	C134.795349,138.185257 140.561234,138.252365 146.656342,138.565613 
	C145.579788,139.862946 144.174026,140.914139 142.446991,142.103806 
	C140.690567,141.828827 139.255432,141.415375 137.418274,141.002090 
	C134.408356,140.285019 131.800430,139.567780 129.110977,138.484329 
z"/>
<path fill="#F6AC14" opacity="1.000000" stroke="none" 
	d="
M133.991882,141.015411 
	C134.744492,141.012955 135.497101,141.010483 136.626068,141.011536 
	C136.934128,142.089661 136.865829,143.164261 136.797516,144.238861 
	C136.328186,144.603134 135.858856,144.967422 135.389526,145.331696 
	C135.017456,144.412781 134.645386,143.493866 134.135193,142.042007 
	C133.997070,141.509064 133.991882,141.015427 133.991882,141.015411 
z"/>
<path fill="#F9AA17" opacity="1.000000" stroke="none" 
	d="
M129.320938,144.958557 
	C129.464905,144.334061 129.929031,143.668732 130.694550,143.005371 
	C130.544327,143.644135 130.092712,144.280945 129.320938,144.958557 
z"/>
<path fill="#F9A60B" opacity="1.000000" stroke="none" 
	d="
M133.746063,141.011597 
	C133.991882,141.015427 133.997070,141.509064 133.999146,141.755920 
	C133.681000,141.902206 133.421509,141.716690 133.115662,141.229034 
	C133.008560,141.011841 133.500229,141.007782 133.746063,141.011597 
z"/>
<path fill="#1377F0" opacity="1.000000" stroke="none" 
	d="
M180.999588,140.996857 
	C180.999741,141.163956 180.999878,141.331039 180.632904,141.753601 
	C178.842331,143.004440 177.418823,143.999786 175.995316,144.995132 
	C173.377151,149.743637 169.506790,148.085739 165.433807,146.647949 
	C166.412064,145.198929 167.704391,144.100067 168.998352,143.000610 
	C169.000000,143.000000 169.001221,142.996490 169.392151,142.997223 
	C172.188339,141.998428 174.593613,140.998901 176.999451,139.999695 
	C177.000000,140.000000 176.999390,139.998779 177.365250,139.999817 
	C178.820602,140.332870 179.910095,140.664856 180.999588,140.996857 
z"/>
<path fill="#1676F0" opacity="1.000000" stroke="none" 
	d="
M145.154816,154.795959 
	C144.166779,154.742035 143.393799,154.417038 142.307587,154.048920 
	C141.994354,154.005798 141.924835,153.549744 142.061707,153.015259 
	C143.133484,151.657578 144.068405,150.834366 145.218536,150.271973 
	C147.289383,150.020264 149.144989,149.507736 151.345657,148.963287 
	C152.793549,148.622620 153.896408,148.313858 155.167419,148.250092 
	C155.892059,148.665421 156.448517,148.835754 157.004974,149.006104 
	C154.182938,153.072769 150.074295,154.426895 145.154816,154.795959 
z"/>
<path fill="#1C72EC" opacity="1.000000" stroke="none" 
	d="
M157.403198,149.004089 
	C156.448517,148.835754 155.892059,148.665421 155.346405,147.987747 
	C156.570831,146.318039 157.784470,145.155655 159.330826,143.994568 
	C160.107010,143.994583 160.550491,143.993317 161.406555,143.995148 
	C164.211685,143.665909 166.604202,143.333557 168.996719,143.001221 
	C167.704391,144.100067 166.412064,145.198929 165.055923,146.644043 
	C162.595215,147.660904 160.198334,148.331482 157.403198,149.004089 
z"/>
<path fill="#1C72EC" opacity="1.000000" stroke="none" 
	d="
M181.332153,140.996704 
	C179.910095,140.664856 178.820602,140.332870 177.379395,139.596664 
	C178.388824,138.461746 179.771729,137.768372 181.105560,136.990829 
	C182.758362,136.027344 184.370499,134.994095 186.372467,133.993530 
	C187.488449,133.983276 188.232132,133.970459 188.975830,133.957642 
	C188.745163,135.089172 188.514465,136.220688 187.823486,137.701462 
	C186.576065,138.367966 185.788940,138.685196 184.681274,139.043228 
	C183.905441,139.720856 183.450180,140.357681 182.994919,140.994507 
	C182.551514,140.995193 182.108109,140.995880 181.332153,140.996704 
z"/>
<path fill="#0C7BF4" opacity="1.000000" stroke="none" 
	d="
M185.001831,139.002441 
	C185.788940,138.685196 186.576065,138.367966 187.682251,138.024750 
	C188.903580,140.328964 189.627670,140.489273 194.934158,138.967575 
	C192.176971,141.198776 190.235794,142.769653 188.114868,144.626129 
	C187.935135,144.911713 187.461929,144.956894 187.224106,144.961288 
	C186.407486,143.839249 185.828690,142.712814 185.124878,140.961227 
	C185.000519,139.891525 185.001175,139.446976 185.001831,139.002441 
z"/>
<path fill="#0C7BF4" opacity="1.000000" stroke="none" 
	d="
M176.345322,145.148529 
	C177.418823,143.999786 178.842331,143.004440 180.632904,142.004242 
	C182.255371,146.202209 181.904068,146.471725 176.345322,145.148529 
z"/>
<path fill="#1377F0" opacity="1.000000" stroke="none" 
	d="
M184.681274,139.043228 
	C185.001175,139.446976 185.000519,139.891525 184.998718,140.669556 
	C184.552582,141.001785 184.107605,141.000534 183.328766,140.996887 
	C183.450180,140.357681 183.905441,139.720856 184.681274,139.043228 
z"/>
<path fill="#286CE4" opacity="1.000000" stroke="none" 
	d="
M186.000198,133.990967 
	C184.370499,134.994095 182.758362,136.027344 181.105560,136.990829 
	C179.771729,137.768372 178.388824,138.461746 177.013550,139.595612 
	C176.999390,139.998779 177.000000,140.000000 176.582458,139.999191 
	C174.774185,139.995880 173.383469,139.993362 171.992126,139.646805 
	C171.975433,138.843460 171.959335,138.384140 171.943237,137.924835 
	C171.960388,137.196564 171.977524,136.468277 172.330048,135.372131 
	C173.107452,134.999512 173.549484,134.994751 174.411636,134.993835 
	C177.492844,134.362183 180.131958,133.586426 182.826477,133.164612 
	C183.816986,133.009552 184.938461,133.691055 186.000198,133.990967 
z"/>
<path fill="#286CE4" opacity="1.000000" stroke="none" 
	d="
M158.998108,143.993286 
	C157.784470,145.155655 156.570831,146.318039 155.178223,147.742752 
	C153.896408,148.313858 152.793549,148.622620 151.169830,148.727493 
	C149.433212,148.353043 148.217468,148.182465 147.176758,147.747437 
	C148.233505,146.309082 149.115204,145.135162 149.996918,143.961273 
	C150.484177,143.702530 150.971436,143.443802 152.136047,143.090210 
	C154.874969,143.327988 156.936539,143.660629 158.998108,143.993286 
z"/>
<path fill="#286CE4" opacity="1.000000" stroke="none" 
	d="
M168.998352,143.000610 
	C166.604202,143.333557 164.211685,143.665909 161.407944,143.579895 
	C160.999649,141.776703 161.002563,140.391876 161.005493,139.007050 
	C163.702057,138.992065 166.398621,138.977081 169.546341,139.216995 
	C169.998276,139.648010 169.999039,139.824127 169.737900,140.206024 
	C169.317734,141.273361 169.159485,142.134933 169.001221,142.996490 
	C169.001221,142.996490 169.000000,143.000000 168.998352,143.000610 
z"/>
<path fill="#286CE4" opacity="1.000000" stroke="none" 
	d="
M145.003326,150.011154 
	C144.068405,150.834366 143.133484,151.657578 142.042313,152.785431 
	C140.172195,152.415283 138.458328,151.740509 136.400848,151.015076 
	C138.445770,149.302536 140.834320,147.640686 143.839447,146.141907 
	C144.637772,146.873459 144.819489,147.441925 145.002563,148.343704 
	C145.003708,149.121735 145.003510,149.566452 145.003326,150.011154 
z"/>
<path fill="#3D62D5" opacity="1.000000" stroke="none" 
	d="
M173.991501,134.990005 
	C173.549484,134.994751 173.107452,134.999512 172.333969,135.007904 
	C172.001419,133.296555 172.000336,131.581589 172.001038,129.439133 
	C172.002823,129.011658 172.008270,129.004623 172.461914,129.004944 
	C175.610992,129.004120 178.306412,129.002975 180.947815,129.349335 
	C178.593033,131.461227 176.292267,133.225616 173.991501,134.990005 
z"/>
<path fill="#3168DD" opacity="1.000000" stroke="none" 
	d="
M160.579926,138.997269 
	C161.002563,140.391876 160.999649,141.776703 160.995331,143.576782 
	C160.550491,143.993317 160.107010,143.994583 159.330826,143.994568 
	C156.936539,143.660629 154.874969,143.327988 152.391953,142.985489 
	C153.182770,138.535995 156.688583,138.802811 160.579926,138.997269 
z"/>
<path fill="#3168DD" opacity="1.000000" stroke="none" 
	d="
M145.001221,148.010376 
	C144.819489,147.441925 144.637772,146.873459 144.201019,146.133087 
	C144.421021,141.954422 147.559738,144.934250 149.594177,143.961273 
	C149.115204,145.135162 148.233505,146.309082 146.843292,147.745605 
	C145.890259,148.008926 145.445740,148.009644 145.001221,148.010376 
z"/>
<path fill="#3168DD" opacity="1.000000" stroke="none" 
	d="
M169.999802,140.000244 
	C169.999039,139.824127 169.998276,139.648010 169.995605,139.207108 
	C170.451218,138.626602 170.908722,138.310883 171.654724,137.959991 
	C171.959335,138.384140 171.975433,138.843460 171.660065,139.649689 
	C170.885681,139.997803 170.442749,139.999023 169.999802,140.000244 
z"/>
<path fill="#CD625E" opacity="1.000000" stroke="none" 
	d="
M127.004837,52.995575 
	C126.504608,52.693825 125.999527,52.396503 125.494453,52.099182 
	C125.672600,51.894047 125.850746,51.688911 126.028893,51.483780 
	C126.324669,51.805508 126.620453,52.127232 126.953705,52.729301 
	C126.991165,53.009647 127.000000,53.000000 127.004837,52.995575 
z"/>
<path fill="#485FCC" opacity="1.000000" stroke="none" 
	d="
M181.001831,129.001831 
	C178.306412,129.002975 175.610992,129.004120 172.467743,129.008057 
	C174.755692,125.674828 184.237274,123.015495 187.678375,124.859039 
	C187.980362,125.014313 187.997025,125.500954 188.004837,125.744148 
	C188.012650,125.987343 187.991699,126.011726 187.689117,126.037506 
	C186.926498,126.378670 186.466461,126.694054 185.629822,127.006752 
	C184.167908,127.668365 183.082596,128.332657 181.748413,128.998077 
	C181.499542,128.999191 181.001831,129.001831 181.001831,129.001831 
z"/>
<path fill="#3267DD" opacity="1.000000" stroke="none" 
	d="
M186.006424,127.009430 
	C186.466461,126.694054 186.926498,126.378670 187.679520,126.049995 
	C188.086258,126.345833 188.273956,126.600449 188.744202,126.918472 
	C189.134018,127.582787 189.315247,128.129166 189.734100,128.847366 
	C189.988449,129.746292 190.005127,130.473404 190.035339,131.562073 
	C189.710190,132.400284 189.371536,132.876938 189.004364,133.655624 
	C188.232132,133.970459 187.488449,133.983276 186.372467,133.993530 
	C184.938461,133.691055 183.816986,133.009552 182.826477,133.164612 
	C180.131958,133.586426 177.492844,134.362183 174.411636,134.993835 
	C176.292267,133.225616 178.593033,131.461227 180.947815,129.349335 
	C181.001831,129.001831 181.499542,128.999191 182.124741,128.999496 
	C183.835434,128.336349 184.920929,127.672882 186.006424,127.009430 
z"/>
<path fill="#ED6C39" opacity="1.000000" stroke="none" 
	d="
M130.998474,49.001183 
	C131.116379,49.146175 131.235825,49.289982 131.355255,49.433788 
	C131.268295,49.383217 131.181351,49.332649 131.048492,49.139370 
	C131.002609,48.996662 131.000000,49.000000 130.998474,49.001183 
z"/>
<path fill="#040404" opacity="1.000000" stroke="none" 
	d="
M151.675415,79.865326 
	C153.016769,89.615898 149.947723,92.432663 138.926849,91.790138 
	C138.926849,86.268974 138.926849,80.723557 138.926849,74.857033 
	C143.819397,74.776260 148.722137,74.049767 151.675415,79.865326 
z"/>
<path fill="#1F1F1F" opacity="1.000000" stroke="none" 
	d="
M118.938446,75.970993 
	C120.278671,82.449821 118.287117,83.649429 108.522018,82.460434 
	C108.433456,81.267036 108.276825,80.006645 108.263916,78.744766 
	C108.250832,77.466316 108.379845,76.186417 108.496315,73.954994 
	C112.142143,74.559204 115.428482,75.103836 118.938446,75.970993 
z"/>
<path fill="#F59B20" opacity="1.000000" stroke="none" 
	d="
M112.216888,142.894318 
	C112.098694,142.679550 112.284988,142.420563 112.776627,142.119080 
	C112.894249,142.334229 112.707390,142.592087 112.216888,142.894318 
z"/>
<path fill="#1C72EC" opacity="1.000000" stroke="none" 
	d="
M169.737900,140.206024 
	C170.442749,139.999023 170.885681,139.997803 171.660675,139.993713 
	C173.383469,139.993362 174.774185,139.995880 176.581909,139.998871 
	C174.593613,140.998901 172.188339,141.998428 169.392151,142.997223 
	C169.159485,142.134933 169.317734,141.273361 169.737900,140.206024 
z"/>
<path fill="#1C72EC" opacity="1.000000" stroke="none" 
	d="
M145.002563,148.343704 
	C145.445740,148.009644 145.890259,148.008926 146.668243,148.010040 
	C148.217468,148.182465 149.433212,148.353043 150.824799,148.759399 
	C149.144989,149.507736 147.289383,150.020264 145.218536,150.271973 
	C145.003510,149.566452 145.003708,149.121735 145.002563,148.343704 
z"/>
<path fill="#3D62D5" opacity="1.000000" stroke="none" 
	d="
M185.629822,127.006744 
	C184.920929,127.672882 183.835434,128.336349 182.373596,128.998383 
	C183.082596,128.332657 184.167908,127.668365 185.629822,127.006744 
z"/>
</svg>